D:\school\WTK\thesis\model\3dpredictsim\Results\Batchsim_tmt_linear\Pog_s1_tmt_bCst_d05_k500_ig24_pas_GRF.mot
nRows=20
nColumns=19

name D:\school\WTK\thesis\model\3dpredictsim\Results\Batchsim_tmt_linear\Pog_s1_tmt_bCst_d05_k500_ig24_pas_GRF.mot
datacolumns 19
datarows 20
range 0.5514647481 0.7610213523
endheader
time 	ground_force_vx	ground_force_vy	ground_force_vz	ground_force_px	ground_force_py	ground_force_pz	1_ground_force_vx	1_ground_force_vy	1_ground_force_vz	1_ground_force_px	1_ground_force_py	1_ground_force_pz	ground_torque_x	ground_torque_y	ground_torque_z	1_ground_torque_x	1_ground_torque_y	1_ground_torque_z
        0.5514647481	      100.6084934658	      526.0915719325	        3.3430179445	        0.3791336035	        0.0000000000	        0.0355720330	      -73.7859529082	       60.1455803147	      -27.4746041526	        0.8627360485	        0.0000000000	       -0.0384074213	        0.0000000000	        0.0000000000	        0.0000000000	        0.0000000000	        0.0000000000	        0.0000000000	
        0.5624940430	       84.8906427763	      449.9033013965	        7.5327973733	        0.3822325010	        0.0000000000	        0.0348754961	     -114.8438307472	      131.6653481046	      -70.1575515796	        0.8702701751	        0.0000000000	       -0.0360323590	        0.0000000000	        0.0000000000	        0.0000000000	        0.0000000000	        0.0000000000	        0.0000000000	
        0.5735233380	       68.9842687042	      365.3595479263	        8.9360021888	        0.3868670361	        0.0000000000	        0.0334487896	      -46.1565962591	      261.3591782052	      -35.7529248043	        0.8758098684	        0.0000000000	       -0.0335153741	        0.0000000000	        0.0000000000	        0.0000000000	        0.0000000000	        0.0000000000	        0.0000000000	
        0.5845526330	       47.5918099500	      272.9553112296	        5.3799649965	        0.3944076342	        0.0000000000	        0.0305014374	      -40.4338268375	      406.5038035554	       -6.1452779108	        0.8789414913	        0.0000000000	       -0.0331824253	        0.0000000000	        0.0000000000	        0.0000000000	        0.0000000000	        0.0000000000	        0.0000000000	
        0.5955819279	       23.8647396421	      180.4201471207	        6.4243635970	        0.4081672097	        0.0000000000	        0.0244063811	      -66.1052058735	      580.9197148791	        4.0902975730	        0.8862889708	        0.0000000000	       -0.0352715928	        0.0000000000	        0.0000000000	        0.0000000000	        0.0000000000	        0.0000000000	        0.0000000000	
        0.6066112229	        5.6332095588	      135.6898415943	       11.7937834860	        0.4177318490	        0.0000000000	        0.0194727036	      -93.4525872826	      731.1412862488	        9.8491994130	        0.8932304925	        0.0000000000	       -0.0373759058	        0.0000000000	        0.0000000000	        0.0000000000	        0.0000000000	        0.0000000000	        0.0000000000	
        0.6176405178	        1.8919233678	      104.7735035083	       12.4433087712	        0.4180712074	        0.0000000000	        0.0196122605	     -106.8574161955	      808.1791806308	       11.8140750711	        0.8979700274	        0.0000000000	       -0.0386933883	        0.0000000000	        0.0000000000	        0.0000000000	        0.0000000000	        0.0000000000	        0.0000000000	
        0.6286698128	       -1.8932191792	       67.9394642912	       11.4399538748	        0.4185772126	        0.0000000000	        0.0196681720	     -106.4086922169	      826.4698012412	       12.2528849104	        0.9013899922	        0.0000000000	       -0.0394958760	        0.0000000000	        0.0000000000	        0.0000000000	        0.0000000000	        0.0000000000	        0.0000000000	
        0.6396991078	       -7.5195057225	       27.8190220386	        5.8945217082	        0.4183188036	        0.0000000000	        0.0194151669	      -99.8541181159	      815.6717401712	       12.4597167556	        0.9043498282	        0.0000000000	       -0.0399676802	        0.0000000000	        0.0000000000	        0.0000000000	        0.0000000000	        0.0000000000	        0.0000000000	
        0.6507284027	        0.0787784240	       -0.0776342822	       -0.0015147817	        0.0000000000	        0.0000000000	        0.0000000000	      -90.5390445479	      797.6796434451	       13.2513036306	        0.9074960260	        0.0000000000	       -0.0402015268	        0.0000000000	        0.0000000000	        0.0000000000	        0.0000000000	        0.0000000000	        0.0000000000	
        0.6617576977	        0.0000927033	       -0.0000748964	        0.0000054430	        0.0000000000	        0.0000000000	        0.0000000000	      -78.7572446566	      771.4678348603	       14.2295272990	        0.9107708664	        0.0000000000	       -0.0403134610	        0.0000000000	        0.0000000000	        0.0000000000	        0.0000000000	        0.0000000000	        0.0000000000	
        0.6727869927	        0.0000427326	       -0.0000301036	        0.0000032400	        0.0000000000	        0.0000000000	        0.0000000000	      -68.2867489274	      742.2913790076	       14.6670718846	        0.9146803589	        0.0000000000	       -0.0403448012	        0.0000000000	        0.0000000000	        0.0000000000	        0.0000000000	        0.0000000000	        0.0000000000	
        0.6838162876	        0.0004120638	       -0.0002604091	        0.0000347210	        0.0000000000	        0.0000000000	        0.0000000000	      -59.2465409494	      714.4029312614	       15.0453010893	        0.9191143649	        0.0000000000	       -0.0402782229	        0.0000000000	        0.0000000000	        0.0000000000	        0.0000000000	        0.0000000000	        0.0000000000	
        0.6948455826	        0.0047994939	       -0.0027810266	        0.0004278412	        0.0000000000	        0.0000000000	        0.0000000000	      -50.1192365545	      686.0862842922	       15.6109609573	        0.9235170606	        0.0000000000	       -0.0402250299	        0.0000000000	        0.0000000000	        0.0000000000	        0.0000000000	        0.0000000000	        0.0000000000	
        0.7058748775	       -0.0237040939	        0.0127749903	       -0.0021932045	        0.0000000000	        0.0000000000	        0.0000000000	      -41.4270960880	      659.0836128914	       16.1673658109	        0.9278682446	        0.0000000000	       -0.0402298459	        0.0000000000	        0.0000000000	        0.0000000000	        0.0000000000	        0.0000000000	        0.0000000000	
        0.7169041725	       -0.0164819711	        0.0083528118	       -0.0015701205	        0.0000000000	        0.0000000000	        0.0000000000	      -34.0424128429	      635.6532847044	       16.6229460458	        0.9322612183	        0.0000000000	       -0.0402801324	        0.0000000000	        0.0000000000	        0.0000000000	        0.0000000000	        0.0000000000	        0.0000000000	
        0.7279334675	       -0.0116109628	        0.0055833842	       -0.0011296897	        0.0000000000	        0.0000000000	        0.0000000000	      -27.9085014180	      616.3560797096	       17.2000216996	        0.9366560990	        0.0000000000	       -0.0403534436	        0.0000000000	        0.0000000000	        0.0000000000	        0.0000000000	        0.0000000000	        0.0000000000	
        0.7389627624	       -0.0105973941	        0.0048717727	       -0.0010440956	        0.0000000000	        0.0000000000	        0.0000000000	      -22.5154539532	      601.5634742140	       17.5233005443	        0.9413299503	        0.0000000000	       -0.0404342090	        0.0000000000	        0.0000000000	        0.0000000000	        0.0000000000	        0.0000000000	        0.0000000000	
        0.7499920574	       -0.0129681125	        0.0057319605	       -0.0012845075	        0.0000000000	        0.0000000000	        0.0000000000	      -18.6016859706	      591.5309225515	       17.5405427969	        0.9463949530	        0.0000000000	       -0.0404944323	        0.0000000000	        0.0000000000	        0.0000000000	        0.0000000000	        0.0000000000	        0.0000000000	
        0.7610213523	       -0.0204810386	        0.0087462827	       -0.0020197904	        0.0000000000	        0.0000000000	        0.0000000000	      -15.5283944854	      585.5400177189	       17.4973954953	        0.9518360602	        0.0000000000	       -0.0405081149	        0.0000000000	        0.0000000000	        0.0000000000	        0.0000000000	        0.0000000000	        0.0000000000	
